<?xml version="1.0" encoding="UTF-8"?>
<svg width="606px" height="606px" viewBox="0 0 606 606" version="1.1" xmlns="http://www.w3.org/2000/svg" xmlns:xlink="http://www.w3.org/1999/xlink">
    <defs>
        <path d="M552.268958,552.268958 C600,504.537813 600,431.458333 600,300 C600,168.541667 600,95.4621875 552.268958,47.7310417 C504.537813,0 431.458333,0 300,0 C168.541667,0 95.4621875,0 47.7310417,47.7310417 C0,95.4621875 0,168.541667 0,300 C0,431.458333 0,504.537813 47.7310417,552.268958 C95.4621875,600 168.541667,600 300,600 C431.458333,600 504.537813,600 552.268958,552.268958 Z" id="path-2"></path>
    </defs>
    <g id="Page-1" stroke="none" stroke-width="1" fill="none" fill-rule="evenodd">
        <g transform="translate(3.000000, 3.000000)">
            <g id="Squircle2-Copy-6">
                <g id="Shape">
                    <use fill="#FFFFFF" xlink:href="#path-2"></use>
                    <use stroke="#000000" stroke-width="4.04" fill="url(#linearGradient-1)" xlink:href="#path-2"></use>
                </g>
            </g>
            <g transform="scale(0.68, 0.68)">

<path fill-rule="evenodd" clip-rule="evenodd" fill="#A28BBB" d="M502.789,283.969c29.827-13.779,58.362-20.752,84.207,6.043
	c24.957,25.878,17.257,53.773,4.082,83.522c32.73,10.515,57.374,28.771,56.191,63.812c-1.105,32.741-25.257,49.773-56.701,60.124
	c12.956,29.641,21.721,58.085-4.34,84.453c-26.171,26.479-54.358,19.605-82.535,5.244c-6.986,12.26-11.724,23.234-18.762,32.452
	c-29.313,38.393-82.627,30.246-100.403-16.273c-5.229-13.682-11.45-16.738-22.297-11.033c-26.817,14.104-50.502,9.051-70.404-11.665
	c-19.614-20.416-20.677-44.436-8.099-69.509c1.861-3.705,1.709-8.42,2.25-11.372c-13.953-9.064-28.897-15.275-39.028-26.025
	c-28.225-29.944-17.271-74.944,23.071-92.354c15.934-6.875,18.107-12.647,11.203-27.461c-10.834-23.25-5.659-48.373,12.07-65.026
	c18.191-17.089,39.173-23.173,62.904-12.246c14.094,6.489,23.141,7.862,29.439-11.378c7.711-23.551,27.175-36.792,52.45-37.411
	c25.377-0.62,43.238,12.409,54.214,35.105C495.167,268.901,498.182,274.757,502.789,283.969z M536.009,375.905
	c0.794-26.42-17.589-41.655-42.369-35.775c-11.547,2.739-17.536,2.733-24.077-10.032c-12.104-23.618-44.668-24.639-58.211-2.208
	c-7.593,12.578-14.05,15.3-28.268,11.808c-25.475-6.258-47.281,17.701-39.282,42.375c3.629,11.189,2.648,16.721-8.136,23.134
	c-27.396,16.291-26.533,44.598-0.386,61.998c5.249,3.494,10.157,13.857,8.906,19.696c-6.262,29.171,12.077,50.587,40.815,44.197
	c12.125-2.696,18.501-0.43,25.24,10.456c14.484,23.401,46.518,23.366,59.506-0.512c6.012-11.053,11.309-12.678,22.318-10.402
	c29.888,6.175,47.296-10.027,42.796-40.364c-1.887-12.719,0.061-19.412,12.504-26.134c18.771-10.138,21.43-41.013,4.423-52.86
	C537.21,401.127,528.17,391.929,536.009,375.905z"/>
<g>
	<path fill-rule="evenodd" clip-rule="evenodd" fill="#9669A4" d="M649.934,315.004c-11.537-24.349-17.131-47.598-31.203-63.206
		c-21.594-23.945-51.799-18.772-80.67-11.42c-7.869,2.004-15.581,6.196-24.085,5.708c1.449-7.971-1.036-24.822,3.423-30.379
		c39.554-49.305,88.008-82.078,154.683-78.12c34.879,2.069,63.112,30.353,66.294,65.321c3.373,37.076-8.951,69.73-28.427,99.916
		c-3.938,6.104-13.742,10.68-21.39,11.654C674.147,316.308,659.34,315.004,649.934,315.004z"/>
	<path fill-rule="evenodd" clip-rule="evenodd" fill="#9669A4" d="M382.402,663.819c2.848,1.691,4.929,4.396,7.195,6.917
		c36.417,40.514,95.992,15.477,121.909-34.526c4.025-7.768,28.396-11.111,28.396-11.111c2.53,9.916,2.764,18.291,2.746,27.571
		c1.723,44.999-5.99,91.245-31.309,131.052c-17.007,26.739-41.147,46.477-74.146,44.655c-39.399-2.176-62.375-29.609-79.802-62.176
		c-0.343-0.643-0.454-1.403-0.742-2.08C334.911,712.901,336.567,711.394,382.402,663.819z"/>
	<path fill-rule="evenodd" clip-rule="evenodd" fill="#9669A4" d="M317.889,232.905c-13.903,2.26-28.574,1.937-40.894,7.16
		c-35.742,15.15-48.418,57.17-32.409,98.519c2.501,6.459-0.16,3.374,3.17,10.51c-5.947,7.136-10.515,23.629-10.943,23.312
		c-21.885-16.176-101.959-105.822-94.249-175.656c3.221-29.16,28.624-54.695,57.798-58.569
		c39.141-5.194,74.437,5.173,106.629,27.008c4.531,3.073,10.087,8.545,10.402,13.226
		C318.609,196.466,317.889,214.646,317.889,232.905z"/>
	<path fill-rule="evenodd" clip-rule="evenodd" fill="#9669A4" d="M622.681,355.098c10.243-8.5,16.778-18.551,24.559-19.633
		c55.261-7.68,107.791,1.102,151.928,37.219c46.357,37.939,44.67,94.363-4.672,128.739c-21.172,14.751-47.349,22.507-71.695,32.335
		c-4.279,1.727-9.978,0.889-16.135-3.49c-2.75-1.955-6.682-4.221-9.305-6.802c-9.372-9.225-22.391-18.103-24.945-28.914
		c-1.929-8.16,12.206-19.571,17.979-30.196c17.46-32.153,0.436-75.008-37.014-94.22
		C645.022,365.847,636.512,361.858,622.681,355.098z"/>
	<path fill-rule="evenodd" clip-rule="evenodd" fill="#9669A4" d="M197.134,538.863c-47.78-2.334-93.523-13.552-128.292-51.578
		c-30.678-33.552-30.311-68.151-0.542-102.789c23.824-27.726,56.148-39.375,90.016-47.743c4.422-1.091,10.956,2.357,15.194,5.487
		c5.85,4.323,10.443,10.569,15.727,15.402c16.313,14.919,19.776,23.54,4.529,42.479c-26.102,32.424-10.145,78.147,31.767,100.918
		c3.223,1.75,15.364,0.82,18.073,3.072c5.236,4.349,8.761,22.307,13.58,27.16c-9.191,4.088-18.707,4.802-25.843,5.753
		C220.708,538.441,209.684,538.137,197.134,538.863z"/>
	<path fill-rule="evenodd" clip-rule="evenodd" fill="#9669A4" d="M625.63,509.005c12.669,0.916,23.819-1.661,30.159,2.721
		c47.243,32.657,77.404,77.485,82.352,135.169c6.292,73.374-50.456,99.6-115.354,83.007c-4.265-1.091-8.247-3.226-12.452-4.592
		c-44.341-14.415-56.4-32.866-49.338-77.985c0.653-4.173,7.754-9.896,12.426-10.495c57.135-7.331,80.931-46.084,61.378-101.065
		C632.586,529.539,630.511,523.264,625.63,509.005z"/>
	<path fill-rule="evenodd" clip-rule="evenodd" fill="#9669A4" d="M496.169,204.867c-53.058-47.392-100.432-33.311-137.07,45.93
		c-7.561-8.114-18.358-14.22-19.258-21.542c-6.375-51.823-1.405-102.108,30.975-145.715c41.824-56.326,100.646-54.671,139.738,3.453
		c5.331,7.928,10.278,16.3,14.076,25.041C545.127,159.186,540.47,173.911,496.169,204.867z"/>
	<path fill-rule="evenodd" clip-rule="evenodd" fill="#9669A4" d="M238.763,557c-0.939,34.296,6.236,65.663,39.521,73.699
		c26.268,6.342,40.077-2.658,72.729-3.131c-0.249-0.621,30.062,11.646,24.691,18.518c-40.223,51.459-105.059,93.138-173.479,87.39
		c-30.216-2.537-55.927-29.354-59.584-59.434c-4.06-33.394,2.779-64.224,18.534-93.849c8.799-16.543,18.714-27.195,39.538-23.547
		C212.045,558.631,224.012,557,238.763,557z"/>
</g>
<path fill-rule="evenodd" clip-rule="evenodd" fill="#69539C" d="M364.556,457.028c-15.413-14.209-15-27.791,0.839-42.853
	c3.958-3.763,7.418-10.808,6.96-15.974c-1.859-20.894,6.143-30.459,27.572-30.068c6.271,0.115,14.035-3.139,18.686-7.461
	c15.276-14.196,26.839-14.306,41.753-0.7c5.068,4.624,13.328,7.795,20.221,7.971c18.304,0.466,26.906,7.904,27.431,26.811
	c0.207,7.376,4.584,15.777,9.514,21.653c10.793,12.864,11.573,24.001,0.684,37.367c-5.279,6.483-9.21,14.228-10.288,22.851
	c-0.895,7.155,1.341,21.241-19.677,24.819c-17.023,2.898-15.77,1.761-34.434,12.744c-1.069,0.629-17.44,12.074-34.433-2.012
	c-15.875-13.16-10.001-15.499-30.856-13.863c-11.403,0.895-17.664-10.285-18.863-22.31
	C369.075,467.68,369.122,461.238,364.556,457.028z M440.201,497.906c19.876,1.076,33.181-8.651,43.537-19.231
	c10.48-10.706,17.691-30.366,17.389-44.135c-0.579-26.337-25.175-64.124-63.205-62.732c-16.183,0.592-32.975,10.038-43.386,20.987
	c-10.398,10.936-18.085,29.255-17.813,44.173c0.267,14.818,9.212,32.382,19.507,43.134
	C405.744,490.038,420.549,498.396,440.201,497.906z"/>
<path fill-rule="evenodd" clip-rule="evenodd" fill="#B2B1D9" d="M480.908,435.831c-0.366,16.543-27.537,41.887-43.507,40.583
	c-14.858-1.212-39.07-26.68-38.805-40.817c0.286-15.261,26.476-41.069,41.186-40.588
	C455.729,395.534,481.242,420.856,480.908,435.831z"/>




            </g>
        </g>
    </g>
</svg>
